<?xml version="1.0" encoding="UTF-8"?>
<svg id="Vrstva_1" data-name="Vrstva 1" xmlns="http://www.w3.org/2000/svg" viewBox="0 0 153.47 83.77">
  <path d="M153.45,36.87c-.33-1.64-4.73-3.18-23.92-2.26h-.02l-71.07-.51c-1.18-.79-8.2-22.31-10.73-26.3C41.63-1.77,25.38-2.51,17.69,5.45c-1.04,1.08-2.1,3.86-2.44,4.05-2.4,1.38-13.88,1.34-14.93,3.45-.93,3.73.08,9.97,3.56,12.07,3.48,2.11,21.96,3.31,22.71,4.2l3.37,19.64v-.08c.5,8.47,2.86,16.38,5.77,24.65-3.19,2.36-5.12,5.89-3.33,9.86.56.4,12.35.51,13.65.27,1.44-.28,1.2-1.61,1.82-1.77,1.16-.28,3.25.46,4.26-.24l.57-8.97,70.28-10.49c1.37-.03,6.23,2.67,6.9,3.55.31.41,3.57,9.43,3.21,9.8-3.71,0-4.85,3.06-4.63,6.37.28.29,4.33-.27,5.38,0,.64.15.82,1.59,1.27,1.74,1.59.53,11.25,0,13.88,0l.87-.87v-24.87c-7.15-2.26-5-7.04-5.92-12.59-.08-.49-.2-.97-.36-1.44,5.75-1.89,10.24-5.07,9.87-6.9ZM23.38,15.2c-3.78,1.27-3.94-3.3-1.54-3.91,2.22-.55,3.58,3.23,1.54,3.91Z"/>
</svg>