<?xml version="1.0" encoding="UTF-8"?>
<svg id="Vrstva_1" xmlns="http://www.w3.org/2000/svg" version="1.1" viewBox="0 0 675.95 185.69">
  <!-- Generator: Adobe Illustrator 30.0.0, SVG Export Plug-In . SVG Version: 2.1.1 Build 123)  -->
  <defs>
    <style>
      .st0 {
        fill: #14ed99;
      }
    </style>
  </defs>
  <path class="st0" d="M407.31,29.25c7.5-1.35,31.12-1.03,39.24-.28,13.55,1.26,8.65,8.92,9.58,18.73.32,3.4,2.02,26.08,8.98,17.08,5.96-7.71.95-17.04,14.77-18.59,10.95-1.23,30.07-.56,41.5-.03,4.04.19,8.23,2.15,12.05,2.08,9.44-.17,24.01-5.42,35.46-6.08,53.81-3.11,84.67,2.47,87.51,62.12,1.03,21.61-.44,43.63-.54,65.26-2.05,1.66-4.42,2.73-7.07,3.05-7.82.93-26.44.76-34.45.02-4.37-.41-7.41-2.48-11.17-2.99-16.89-2.31-26,12.3-48.74,5.25-5.67-1.76-12.63-8.12-16.92-8.43-5.49-.41-5.73,2.64-9.7,4.51-5.23,2.45-40.55,2.45-47.94,1.63-2.55-.29-7.01-1.5-8.64-3.5-1.92-2.37-5.64-23.85-12-15.1-5.09,7.01,2.62,17.21-12.7,18.64-7.42.69-33.63,1.04-40.06-.47-2.57-.61-5.45-2.35-5.97-5.15-1.63-17.66,2.21-39.13-.29-56.32-.46-3.16-1.41-7.31-4.73-8.41-7.06-2.32-26.64,3.9-30.27,11.3-5.77,11.75,1.44,50.35-4.18,56.47-1.5,1.63-5.29,2.38-7.52,2.59-9.23.88-28.26.85-37.51,0-5.77-.54-9.86-2.34-10.6-8.61l.55-112.72c2.39-3.27,5.07-4.62,9.08-5.08,6.89-.79,23.43-.76,30.34,0,5.47.6,9.35,4.34,15.18,4.14,6.6-.23,10.86-6.23,17.27-7.07,6.73-.89,16.69,4.34,20.69-1.57,3.13-4.62-.14-10.84,8.79-12.44v-.02ZM535.78,62.62c-3.77-3.82-7.99,1.29-9.6,4.57-4.38,8.97-11.43,37.52-10.13,46.98.73,5.31,6.43,26.52,12.43,27.1,7.32-1.27,6.99-12.37,9.78-18.53,6.78-14.99,22.63-17.81,37.69-16.89,3.47.21,24.87,5.35,18.76-4.35-3.77-5.99-23.41-6.22-29.86-5.76-7.43.53-24,7.61-25.74-3.61-.94-6.05.8-25.32-3.34-29.51h0ZM589.32,132.34c-7.05,2.1-1.32,18.43,8.41,11.42,1.8-1.53,1.39-8.06.09-10.21-1.49-1.89-6.29-1.86-8.49-1.21h-.01Z"/>
  <path class="st0" d="M116.56,70.18c.54.56,2.03,1.22,2.81.83,6.15-3.01,5.85-29.17,7.48-36.01.82-3.45,2.45-4.29,5.61-5.51,25.32.95,54.57-2.91,79.47-.53,7.91.75,9.09,3.31,9.6,10.62,2.78,40.32-2.21,83.78,0,124.44.33,4.13-2.26,7.08-6.09,8.07-5.75,1.49-36.11,1.26-43.01.48-12.3-1.39-7.98-10.52-8.61-19.7-.37-5.49-.68-16.36-2.28-20.97-.54-1.55-2.15-5.19-4.17-4.77-6.54,1.35-8.18,32.65-9.97,38.62-1.56,5.19-5.4,6.4-10.33,6.86-6.42.6-32.66.88-37.8-.71-2.54-.78-4.87-2.82-5.77-5.35-2.13-6.01-3.5-38.22-10.18-39.42-2.05-.37-3.62,3.19-4.17,4.77-1.61,4.61-1.91,15.48-2.28,20.97-.62,9.18,3.69,18.31-8.61,19.7-8.9,1.01-29.46.91-38.48.05-8.55-.82-9.04-3.91-9.6-11.63-2.85-39.21,2.26-81.82,0-121.39.63-7.34,1.76-9.88,9.59-10.63,17.17-1.64,53.68-1.59,70.89.01,3.61.34,7.72.99,9.3,4.86,2.41,7.95,1.12,30.7,6.6,36.36v-.02Z"/>
  <path class="st0" d="M241.42,81.8c6.22-1.4,17.61,2.02,25.12,1.84,9.06-.21,25.53-7.48,26.8,6.48,2.13,23.45-1.71,50.07-.03,73.87-.74,6.28-4.85,8.07-10.6,8.61-8.87.83-28.74.95-37.46-.04-3.12-.36-6.26-1.29-8.07-4.06l-.57-81.41c-.13-2.77,2.31-4.73,4.81-5.29h0Z"/>
  <path class="st0" d="M257.67,25.25c18.01-2.18,34.88,3.22,36.55,23.61,2.61,31.86-54.86,35.06-58.47,5.82-2.02-16.34,5.27-27.42,21.92-29.43Z"/>
</svg>