<?xml version="1.0" encoding="UTF-8"?>
<svg id="Vrstva_1" xmlns="http://www.w3.org/2000/svg" version="1.1" viewBox="0 0 1169.03 185.69">
  <!-- Generator: Adobe Illustrator 30.0.0, SVG Export Plug-In . SVG Version: 2.1.1 Build 123)  -->
  <defs>
    <style>
      .st0 {
        fill: #14ed99;
      }
    </style>
  </defs>
  <path class="st0" d="M132.47,140.5c-4.93-4.91-10.46-.04-15.48.64-7.88,1.06-34.81-2.83-36.81,7.69-1.48,7.79,4.19,20.89-6.02,23.3-6.77,1.6-40.28,1.33-48.11.43-2.64-.3-5.26-.97-7.17-2.94V31.95l8.14-2.98c29.17,2.49,63.53-3.2,92.07.04,13.81,1.57,4.98,12.61,11.55,17.77,4.99,3.91,13.27-1.29,19.07-2.33,21.82-3.9,61.34-4.82,81.35,5.07,32.77,16.21,24.12,65.04,25.03,95.28.18,5.9,2.23,14.61,2.12,20.23-.06,3.34-4.23,6.31-7.1,7.06-5.34,1.39-31.61,1.18-37.96.48-6.96-.77-10.61-4.14-19.24-3.06-4.18.52-6.93,3.29-10.62,4.55-15.48,5.31-37.99,3.74-45.26-13.35-2.13-5-3.09-17.74-5.57-20.21h0ZM194.14,101.08c-4.71-5.61-22.57-5.83-29.51-5.34-6.27.45-15.89,4.21-21.32,2.08-7.52-2.96-2.78-10.41-5.73-16.51-3.85-7.96-12.43-1.4-18.47-.74-8.62.95-28.71-1.89-35.41,3.02-3.04,2.22-3.43,4.08-.56,6.65,7.74,6.9,33.7.04,39.46,6.04,5.23,5.44-1.89,32.78,6.62,33.87,5.29.67,8.93-9.45,12.11-13.19,8.62-10.12,21.74-11.87,34.38-11.1,6.41.39,13.14,3.84,19.32.04.97-1.26.05-3.68-.9-4.82h0ZM189.08,132.34c-7.05,2.1-1.32,18.43,8.41,11.42,1.8-1.53,1.39-8.06.09-10.21-1.49-1.89-6.29-1.86-8.49-1.21h0Z"/>
  <path class="st0" d="M1134.71,82.38c-7.02-38.04-39.38-39.14-71.51-42.25-.28-2.61-.01-1.62,1.47-2.05,8.83-2.59,37.04-3.55,41.57-8,2-1.95,2.03-13.68,1.44-16.71-.7-3.58-5.24-4.67-8.44-4.52-4.05.2-43.63,12.97-47.52,15.26-11.92,6.99,2.01,15.18,1.36,16.01-1.77.17-3.34,1.08-5.04,1.54-30.58,8.41-55.01,1.65-84.51,4.49-3.34.32-7.95,1.5-9.11,5.04-1.43,4.36-2.37,31.65-6.1,32.48-.98.22-2.58-.03-3.47-.56-3.6-2.16-4.72-25.89-5.49-30.9-1.41-3.2-3.93-5.15-7.37-5.77-7.67-1.38-35.05-1.17-43.27-.27-16.83,1.84,1.93,23.83-10.07,30.33-4.37.1-13.22-15.45-17.22-19.17-22.18-20.66-78.08-20.9-100.11,0-6.79,6.44-13.27,20.16-15.22,29.26-1.12,5.19-.86,21.07-3.91,23.39-6.27,4.77-12.21-4.07-16.45-7-9.98-6.87-19.46-7.77-30.67-11.3.86-5.89,11.08-5.27,15.66-5.03,5.11.28,17.09,4.47,20.83-.43,2.6-3.41,2.98-34.86.63-37.72-5.82-7.06-34.32-3.99-43.44-9.4-.27-.16-.52-.32-.74-.48,0-2.8,27.73-15.31,30.8-19.74,2.23-3.2,2.88-8.21-1.44-9.63-8-2.63-20.95,3.99-29.85,4.63-13.32.97-26.99-6.63-37.4-5.01-6.21.96-5.9,6.89-2.24,10.7,4.76,4.95,19.28,10.81,25.87,15.08,1.26.83,5.47,3.09,5.13,4.9v.06c-15.91,6.26-34.94,3.9-44.66,21.08-3.16,5.58-3.66,10.88-6.04,16.21-7.75,17.34-14.55-8.15-18.85-14.25-18.16-25.77-68.82-22.44-96.54-18.2-5.05.77-11.54,3.71-16.5,3.8-3.83.06-8.02-1.9-12.06-2.09-11.22-.52-31.86-1.31-42.42.13-13.59,1.84-7.42,13.93-16.29,20.2-1.26.12-2.16-.13-3.05-1.06-4.69-4.88-1.93-25.49-3.72-31.66-.79-2.74-4.86-4.3-7.46-4.67-6.52-.92-36.09-1.03-41.95.35-9.14,2.14-4.1,11.22-10.82,14.5-4.31,2.1-12.25-1.65-18.71-.54-5.25.9-9.58,6.05-14.46,6.78-7.09,1.06-10.89-3.31-17.13-4-6.07-.66-26.6-.87-32.13.24-4.08.82-6.34,3.24-6.82,7.33-1.07,9.04.31,20.89.06,30.39-.68,25.2-1.08,50.47-1.01,75.82,0,2-1.12,4.04-.87,5.81.6,4.34,6.64,6.37,10.43,6.79,8.57.96,30.97,1.03,39.47.02,1.78-.21,5.4-1.33,6.54-2.56,5.62-6.11-1.59-44.73,4.18-56.48,3.64-7.4,23.22-13.62,30.28-11.3,3.45,1.14,4.49,5.95,4.88,9.27,2.08,17.62-1.49,38.32.32,56.28,1.34,2.93,4.47,4.25,7.47,4.67,8.22,1.16,29.81.93,38.38.13,15.32-1.42,7.6-11.62,12.7-18.63,6.35-8.75,10.07,12.73,11.99,15.1,1.62,2,6.09,3.21,8.64,3.5,7.39.83,42.7.83,47.94-1.63,3.48-1.63,4.18-4.51,8.68-4.55,5.5-.04,15.41,9.22,25.31,10.21,17.5,1.75,27.44-8.88,41.37-6.98,3.76.51,6.8,2.58,11.17,2.99,13.89,1.29,28.09-.57,41.59-1.98,10.52-1.11,15.14,2.17,24.49,3.66,23.02,3.68,73.23,7.27,88.03-14.53,4.03-5.93,5.68-22.39,15.32-18,3.61,1.64,9.97,15.13,14.14,19.22,20.25,19.88,68.99,20.34,92.37,6.33,12.92-7.73,18.85-18.82,22.46-33.15,2.15-8.49,6.1-46.89,15.16-17.19,4.61,15.13,4.18,34.89,8.87,48.76,1.79,5.3,5.16,6.4,10.31,6.87,23.68,2.2,50.76-1.66,74.82-.1,3.35-.9,7.13-2.46,7.97-6.18,5.83-25.26,6.81-53.64,13.51-78.49.94-3.5,2.91-12.85,7.88-12.38,5.49.51,4.5,15.57,6.11,19.26,3.22,7.36,19.13,1.48,25.28,1.04,5.71-.41,31.18-.09,30.83,8.62-.25,6.25-16.92,1.64-20.68,1.43-28.41-1.59-42.19,12.63-40.03,41.02,1.75,23.04,17.62,32.53,39.72,29.53,7.84-1.07,15.77-7.23,22.67-7.44,5.79-.19,10.8,3.09,16.02,3.66,6.83.75,30.99,1,37.19-.24,1.96-.39,5.6-2.13,5.8-4.31-1.37-27.82,2.72-58.27-2.32-85.64h0ZM501.11,122.75c-2.79,6.16-2.46,17.26-9.78,18.53-6-.58-11.7-21.79-12.43-27.11-1.31-9.45,5.74-38.01,10.12-46.97,1.61-3.29,5.83-8.4,9.6-4.58,4.14,4.19,2.4,23.47,3.34,29.52,1.74,11.21,18.31,4.14,25.74,3.61,6.45-.47,26.09-.24,29.86,5.76,6.1,9.7-15.3,4.56-18.76,4.35-15.07-.92-30.91,1.9-37.69,16.89ZM560.57,143.76c-9.74,7.01-15.47-9.32-8.41-11.42,2.2-.66,7-.69,8.49,1.21,1.31,2.15,1.72,8.68-.08,10.21h0ZM674.79,128.02c-.8,1.22-11.42,3.19-13.61,3.19-12.71,0-27.21-9.32-36.4,3.93-6.02-5.22-8.24-32.39-2.55-35.88,5.59-3.43,12.25,8.8,16.19,12.15,3.64,3.1,9.83,6.41,14.39,7.86,4.3,1.36,19.81,2.98,21.57,5.74.48.75.81,2.4.41,3.01h0ZM811.72,122.66c-7.11.23-8.14-5.14-8.48-11.22-.34-6.25-.05-15.09,7.79-15.34,7.1-.23,8.13,5.15,8.47,11.22.34,6.25.06,15.09-7.78,15.34h0ZM1075.6,145.06c-11.33,2.41-12.71-12.67-3.53-13.75,10.38-1.23,9.37,12.51,3.53,13.75Z"/>
</svg>