<?xml version="1.0" encoding="UTF-8"?>
<svg id="Vrstva_1" data-name="Vrstva 1" xmlns="http://www.w3.org/2000/svg" viewBox="0 0 1853.46 185.69">
  <g>
    <path d="M407.3,20.41c7.5-1.35,31.12-1.03,39.24-.28,13.55,1.26,8.65,8.92,9.58,18.73.32,3.4,2.02,26.08,8.98,17.08,5.96-7.71.95-17.04,14.77-18.59,10.95-1.23,30.07-.56,41.5-.03,4.04.19,8.23,2.15,12.05,2.08,9.44-.17,24.01-5.42,35.46-6.08,53.81-3.11,84.67,2.47,87.51,62.12,1.03,21.61-.44,43.63-.54,65.26-2.05,1.66-4.42,2.73-7.07,3.05-7.82.93-26.44.76-34.45.02-4.37-.41-7.41-2.48-11.17-2.99-16.89-2.31-26,12.3-48.74,5.25-5.67-1.76-12.63-8.12-16.92-8.43-5.49-.41-5.73,2.64-9.7,4.51-5.23,2.45-40.55,2.45-47.94,1.63-2.55-.29-7.01-1.5-8.64-3.5-1.92-2.37-5.64-23.85-12-15.1-5.09,7.01,2.62,17.21-12.7,18.64-7.42.69-33.63,1.04-40.06-.47-2.57-.61-5.45-2.35-5.97-5.15-1.63-17.66,2.21-39.13-.29-56.32-.46-3.16-1.41-7.31-4.73-8.41-7.06-2.32-26.64,3.9-30.27,11.3-5.77,11.75,1.44,50.35-4.18,56.47-1.5,1.63-5.29,2.38-7.52,2.59-9.23.88-28.26.85-37.51-.01-5.77-.54-9.86-2.34-10.6-8.61l.55-112.72c2.39-3.27,5.07-4.62,9.08-5.08,6.89-.79,23.43-.76,30.34,0,5.47.6,9.35,4.34,15.18,4.14,6.6-.23,10.86-6.23,17.27-7.07,6.73-.89,16.69,4.34,20.69-1.57,3.13-4.62-.14-10.84,8.79-12.44ZM535.77,53.79c-3.77-3.82-7.99,1.29-9.6,4.57-4.38,8.97-11.43,37.52-10.13,46.98.73,5.31,6.43,26.52,12.43,27.1,7.32-1.27,6.99-12.37,9.78-18.53,6.78-14.99,22.63-17.81,37.69-16.89,3.47.21,24.87,5.35,18.76-4.35-3.77-5.99-23.41-6.22-29.86-5.76-7.43.53-24,7.61-25.74-3.61-.94-6.05.8-25.32-3.34-29.51ZM589.31,123.5c-7.05,2.1-1.32,18.43,8.41,11.42,1.8-1.53,1.39-8.06.09-10.21-1.49-1.89-6.29-1.86-8.49-1.21Z"/>
    <path d="M116.56,61.35c.54.56,2.03,1.22,2.81.83,6.15-3.01,5.85-29.17,7.48-36.01.82-3.45,2.45-4.29,5.61-5.51,25.32.95,54.57-2.91,79.47-.53,7.91.75,9.09,3.31,9.6,10.62,2.78,40.32-2.21,83.78,0,124.44.33,4.13-2.26,7.08-6.09,8.07-5.75,1.49-36.11,1.26-43.01.48-12.3-1.39-7.98-10.52-8.61-19.7-.37-5.49-.68-16.36-2.28-20.97-.54-1.55-2.15-5.19-4.17-4.77-6.54,1.35-8.18,32.65-9.97,38.62-1.56,5.19-5.4,6.4-10.33,6.86-6.42.6-32.66.88-37.8-.71-2.54-.78-4.87-2.82-5.77-5.35-2.13-6.01-3.5-38.22-10.18-39.42-2.05-.37-3.62,3.19-4.17,4.77-1.61,4.61-1.91,15.48-2.28,20.97-.62,9.18,3.69,18.31-8.61,19.7-8.9,1.01-29.46.91-38.48.05-8.55-.82-9.04-3.91-9.6-11.63-2.85-39.21,2.26-81.82,0-121.39.63-7.34,1.76-9.88,9.59-10.63,17.17-1.64,53.68-1.59,70.89.01,3.61.34,7.72.99,9.3,4.86,2.41,7.95,1.12,30.7,6.6,36.36Z"/>
    <path d="M241.41,72.97c6.22-1.4,17.61,2.02,25.12,1.84,9.06-.21,25.53-7.48,26.8,6.48,2.13,23.45-1.71,50.07-.03,73.87-.74,6.28-4.85,8.07-10.6,8.61-8.87.83-28.74.95-37.46-.04-3.12-.36-6.26-1.29-8.07-4.06l-.57-81.41c-.13-2.77,2.31-4.73,4.81-5.29Z"/>
    <path d="M257.66,16.41c18.01-2.18,34.88,3.22,36.55,23.61,2.61,31.86-54.86,35.06-58.47,5.82-2.02-16.34,5.27-27.42,21.92-29.43Z"/>
  </g>
  <g>
    <path d="M811.91,131.66c-4.96-4.91-10.51-.04-15.55.64-7.92,1.06-34.98-2.83-36.99,7.69-1.49,7.79,4.21,20.89-6.05,23.3-6.81,1.6-40.48,1.33-48.35.43-2.66-.3-5.29-.97-7.21-2.94V23.12l8.18-2.98c29.31,2.49,63.85-3.2,92.53.04,13.87,1.57,5,12.61,11.61,17.77,5.02,3.91,13.34-1.29,19.16-2.33,21.93-3.9,61.65-4.82,81.75,5.07,32.93,16.21,24.24,65.04,25.15,95.28.18,5.9,2.24,14.61,2.13,20.23-.06,3.34-4.25,6.31-7.14,7.06-5.36,1.39-31.76,1.18-38.15.48-7-.77-10.66-4.14-19.33-3.06-4.2.52-6.96,3.29-10.67,4.55-15.56,5.31-38.18,3.74-45.49-13.35-2.14-5-3.1-17.74-5.6-20.21ZM873.89,92.25c-4.73-5.61-22.68-5.83-29.66-5.34-6.3.45-15.97,4.21-21.43,2.08-7.56-2.96-2.79-10.41-5.75-16.51-3.87-7.96-12.49-1.4-18.56-.74-8.66.95-28.85-1.89-35.58,3.02-3.05,2.22-3.45,4.08-.56,6.65,7.78,6.9,33.87.04,39.66,6.04,5.26,5.44-1.9,32.78,6.65,33.87,5.31.67,8.98-9.45,12.17-13.19,8.66-10.12,21.85-11.87,34.55-11.1,6.44.39,13.21,3.84,19.41.04.97-1.26.05-3.68-.91-4.82ZM868.81,123.5c-7.09,2.1-1.33,18.43,8.45,11.42,1.81-1.53,1.4-8.06.09-10.21-1.5-1.89-6.32-1.86-8.54-1.21Z"/>
    <path d="M1819.11,73.55c-7.05-38.04-39.57-39.15-71.87-42.26-.28-2.61,0-1.61,1.49-2.05,8.87-2.59,37.22-3.55,41.78-7.99,2-1.95,2.03-13.68,1.44-16.72-.7-3.57-5.26-4.67-8.48-4.51-4.07.2-43.85,12.97-47.76,15.25-11.98,6.99,2.02,15.19,1.37,16.01-1.78.17-3.36,1.08-5.07,1.54-30.74,8.41-55.28,1.64-84.93,4.48-3.36.32-7.99,1.5-9.16,5.04-1.44,4.36-2.38,31.65-6.13,32.48-.98.22-2.59-.02-3.48-.55-3.62-2.16-4.75-25.9-5.52-30.9-1.42-3.2-3.95-5.15-7.41-5.77-7.71-1.38-35.22-1.16-43.49-.27-16.91,1.84,1.94,23.83-10.11,30.33-4.4.1-13.29-15.45-17.31-19.17-22.29-20.65-78.46-20.9-100.6,0-6.82,6.44-13.34,20.16-15.3,29.26-1.12,5.19-.86,21.06-3.93,23.38-6.3,4.77-12.26-4.07-16.53-6.99-10.03-6.88-19.55-7.78-30.82-11.31.86-5.88,11.13-5.27,15.74-5.02,5.13.28,17.18,4.47,20.93-.43,2.61-3.41,2.99-34.86.63-37.71-5.85-7.07-34.49-3.99-43.66-9.41l-6.27,2.48-3.64-2.02s0,.04,0,.06c-15.99,6.26-35.11,3.89-44.88,21.08-3.17,5.58-3.67,10.88-6.06,16.21-7.79,17.34-14.62-8.15-18.94-14.25-18.26-25.77-69.17-22.43-97.02-18.2-5.08.77-11.59,3.71-16.59,3.8-3.84.07-8.06-1.9-12.11-2.08-11.28-.52-32.02-1.31-42.63.12-13.65,1.84-7.45,13.93-16.37,20.2-1.27.13-2.17-.13-3.06-1.06-4.72-4.88-1.94-25.49-3.74-31.66-.8-2.74-4.89-4.3-7.5-4.67-6.55-.92-36.26-1.03-42.16.34-9.18,2.15-4.12,11.23-10.87,14.5-4.33,2.1-12.31-1.65-18.8-.54-5.28.9-9.63,6.05-14.54,6.78-7.12,1.06-10.94-3.31-17.21-3.99-6.1-.66-26.74-.88-32.29.24-4.1.82-6.38,3.24-6.86,7.33-1.07,9.04.32,20.89.06,30.39-.68,25.2-1.08,50.47-1.01,75.82,0,2-1.12,4.04-.87,5.82.61,4.34,6.68,6.36,10.48,6.78,8.61.96,31.13,1.03,39.67.02,1.79-.21,5.43-1.33,6.57-2.56,5.65-6.11-1.59-44.73,4.2-56.47,3.66-7.41,23.33-13.62,30.42-11.3,3.47,1.13,4.51,5.94,4.91,9.26,2.09,17.63-1.5,38.32.33,56.29,1.34,2.92,4.49,4.25,7.5,4.67,8.26,1.16,29.96.93,38.57.13,15.4-1.43,7.64-11.63,12.76-18.64,6.38-8.75,10.13,12.73,12.06,15.1,1.63,2,6.11,3.21,8.68,3.5,7.42.83,42.91.83,48.17-1.62,3.5-1.63,4.21-4.51,8.73-4.55,5.52-.05,15.48,9.22,25.43,10.21,17.58,1.75,27.57-8.89,41.57-6.98,3.77.51,6.84,2.58,11.22,2.99,13.96,1.29,28.23-.57,41.8-1.98,10.57-1.1,15.22,2.17,24.61,3.67,23.14,3.68,73.59,7.27,88.47-14.53,4.05-5.93,5.71-22.39,15.39-18,3.63,1.65,10.03,15.14,14.21,19.22,20.36,19.88,69.33,20.34,92.83,6.33,12.98-7.74,18.94-18.83,22.57-33.15,2.16-8.49,6.12-46.9,15.23-17.19,4.64,15.13,4.21,34.89,8.92,48.75,1.8,5.3,5.18,6.4,10.36,6.88,23.8,2.19,51.02-1.66,75.18-.1,3.37-.91,7.17-2.46,8.01-6.18,5.86-25.26,6.84-53.64,13.58-78.49.95-3.49,2.93-12.84,7.92-12.38,5.51.51,4.52,15.57,6.14,19.26,3.23,7.36,19.22,1.48,25.41,1.04,5.74-.41,31.33-.09,30.98,8.63-.25,6.24-17.01,1.64-20.79,1.43-28.55-1.59-42.39,12.63-40.22,41.02,1.76,23.04,17.71,32.53,39.92,29.53,7.88-1.06,15.85-7.23,22.78-7.44,5.82-.18,10.85,3.09,16.1,3.67,6.86.75,31.14,1,37.38-.24,1.96-.39,5.63-2.13,5.83-4.31-1.39-27.83,2.73-58.28-2.34-85.64ZM1182.38,113.91c-2.8,6.16-2.47,17.26-9.83,18.53-6.03-.58-11.76-21.79-12.49-27.1-1.31-9.46,5.77-38.01,10.18-46.98,1.61-3.29,5.85-8.39,9.64-4.57,4.16,4.19,2.41,23.46,3.35,29.51,1.75,11.22,18.4,4.14,25.87,3.61,6.48-.46,26.22-.23,30.01,5.76,6.13,9.7-15.37,4.56-18.86,4.35-15.14-.92-31.06,1.9-37.87,16.89ZM1242.13,134.92c-9.78,7.01-15.54-9.32-8.45-11.42,2.21-.65,7.04-.68,8.54,1.21,1.31,2.16,1.72,8.68-.09,10.21ZM1356.92,119.19c-.8,1.22-11.48,3.19-13.67,3.19-12.78.01-27.35-9.32-36.59,3.93-6.04-5.22-8.28-32.39-2.56-35.88,5.61-3.43,12.3,8.8,16.27,12.16,3.65,3.09,9.88,6.4,14.46,7.85,4.32,1.37,19.9,2.99,21.67,5.74.49.75.82,2.4.41,3.02ZM1494.52,113.83c-7.14.23-8.18-5.15-8.52-11.22-.35-6.25-.06-15.09,7.82-15.34,7.14-.23,8.18,5.15,8.52,11.22.35,6.25.06,15.09-7.82,15.34ZM1759.71,136.23c-11.39,2.41-12.78-12.67-3.55-13.76,10.43-1.23,9.42,12.52,3.55,13.76Z"/>
  </g>
</svg>