<?xml version="1.0" encoding="UTF-8"?>
<svg id="Vrstva_1" data-name="Vrstva 1" xmlns="http://www.w3.org/2000/svg" viewBox="0 0 1174.12 185.69">
  <path d="M132.57,131.66c-4.96-4.91-10.51-.04-15.55.64-7.92,1.06-34.98-2.83-36.99,7.69-1.49,7.79,4.21,20.89-6.05,23.3-6.81,1.6-40.48,1.33-48.35.43-2.66-.3-5.29-.97-7.21-2.94V23.12l8.18-2.98c29.31,2.49,63.85-3.2,92.53.04,13.87,1.57,5,12.61,11.61,17.77,5.02,3.91,13.34-1.29,19.16-2.33,21.93-3.9,61.65-4.82,81.75,5.07,32.93,16.21,24.24,65.04,25.15,95.28.18,5.9,2.24,14.61,2.13,20.23-.06,3.34-4.25,6.31-7.14,7.06-5.36,1.39-31.76,1.18-38.15.48-7-.77-10.66-4.14-19.33-3.06-4.2.52-6.96,3.29-10.67,4.55-15.56,5.31-38.18,3.74-45.49-13.35-2.14-5-3.1-17.74-5.6-20.21ZM194.55,92.25c-4.73-5.61-22.68-5.83-29.66-5.34-6.3.45-15.97,4.21-21.43,2.08-7.56-2.96-2.79-10.41-5.75-16.51-3.87-7.96-12.49-1.4-18.56-.74-8.66.95-28.85-1.89-35.58,3.02-3.05,2.22-3.45,4.08-.56,6.65,7.78,6.9,33.87.04,39.66,6.04,5.26,5.44-1.9,32.78,6.65,33.87,5.31.67,8.98-9.45,12.17-13.19,8.66-10.12,21.85-11.87,34.55-11.1,6.44.39,13.21,3.84,19.41.04.97-1.26.05-3.68-.91-4.82ZM189.47,123.5c-7.09,2.1-1.33,18.43,8.45,11.42,1.81-1.53,1.4-8.06.09-10.21-1.5-1.89-6.32-1.86-8.54-1.21Z"/>
  <path d="M1139.77,73.55c-7.05-38.04-39.57-39.15-71.87-42.26-.28-2.61,0-1.61,1.49-2.05,8.87-2.59,37.22-3.55,41.78-7.99,2-1.95,2.03-13.68,1.44-16.72-.7-3.57-5.26-4.67-8.48-4.51-4.07.2-43.85,12.97-47.76,15.25-11.98,6.99,2.02,15.19,1.37,16.01-1.78.17-3.36,1.08-5.07,1.54-30.74,8.41-55.28,1.64-84.93,4.48-3.36.32-7.99,1.5-9.16,5.04-1.44,4.36-2.38,31.65-6.13,32.48-.98.22-2.59-.02-3.48-.55-3.62-2.16-4.75-25.9-5.52-30.9-1.42-3.2-3.95-5.15-7.41-5.77-7.71-1.38-35.22-1.16-43.49-.27-16.91,1.84,1.94,23.83-10.11,30.33-4.4.1-13.29-15.45-17.31-19.17-22.29-20.65-78.46-20.9-100.6,0-6.82,6.44-13.34,20.16-15.3,29.26-1.12,5.19-.86,21.06-3.93,23.38-6.3,4.77-12.26-4.07-16.53-6.99-10.03-6.88-19.55-7.78-30.82-11.31.86-5.88,11.13-5.27,15.74-5.02,5.13.28,17.18,4.47,20.93-.43,2.61-3.41,2.99-34.86.63-37.71-5.85-7.07-34.49-3.99-43.66-9.41l-6.27,2.48-3.64-2.02s0,.04,0,.06c-15.99,6.26-35.11,3.89-44.88,21.08-3.17,5.58-3.67,10.88-6.06,16.21-7.79,17.34-14.62-8.15-18.94-14.25-18.26-25.77-69.17-22.43-97.02-18.2-5.08.77-11.59,3.71-16.59,3.8-3.84.07-8.06-1.9-12.11-2.08-11.28-.52-32.02-1.31-42.63.12-13.65,1.84-7.45,13.93-16.37,20.2-1.27.13-2.17-.13-3.06-1.06-4.72-4.88-1.94-25.49-3.74-31.66-.8-2.74-4.89-4.3-7.5-4.67-6.55-.92-36.26-1.03-42.16.34-9.18,2.15-4.12,11.23-10.87,14.5-4.33,2.1-12.31-1.65-18.8-.54-5.28.9-9.63,6.05-14.54,6.78-7.12,1.06-10.94-3.31-17.21-3.99-6.1-.66-26.74-.88-32.29.24-4.1.82-6.38,3.24-6.86,7.33-1.07,9.04.32,20.89.06,30.39-.68,25.2-1.08,50.47-1.01,75.82,0,2-1.12,4.04-.87,5.82.61,4.34,6.68,6.36,10.48,6.78,8.61.96,31.13,1.03,39.67.02,1.79-.21,5.43-1.33,6.57-2.56,5.65-6.11-1.59-44.73,4.2-56.47,3.66-7.41,23.33-13.62,30.42-11.3,3.47,1.13,4.51,5.94,4.91,9.26,2.09,17.63-1.5,38.32.33,56.29,1.34,2.92,4.49,4.25,7.5,4.67,8.26,1.16,29.96.93,38.57.13,15.4-1.43,7.64-11.63,12.76-18.64,6.38-8.75,10.13,12.73,12.06,15.1,1.63,2,6.11,3.21,8.68,3.5,7.42.83,42.91.83,48.17-1.62,3.5-1.63,4.21-4.51,8.73-4.55,5.52-.05,15.48,9.22,25.43,10.21,17.58,1.75,27.57-8.89,41.57-6.98,3.77.51,6.84,2.58,11.22,2.99,13.96,1.29,28.23-.57,41.8-1.98,10.57-1.1,15.22,2.17,24.61,3.67,23.14,3.68,73.59,7.27,88.47-14.53,4.05-5.93,5.71-22.39,15.39-18,3.63,1.65,10.03,15.14,14.21,19.22,20.36,19.88,69.33,20.34,92.83,6.33,12.98-7.74,18.94-18.83,22.57-33.15,2.16-8.49,6.12-46.9,15.23-17.19,4.64,15.13,4.21,34.89,8.92,48.75,1.8,5.3,5.18,6.4,10.36,6.88,23.8,2.19,51.02-1.66,75.18-.1,3.37-.91,7.17-2.46,8.01-6.18,5.86-25.26,6.84-53.64,13.58-78.49.95-3.49,2.93-12.84,7.92-12.38,5.51.51,4.52,15.57,6.14,19.26,3.23,7.36,19.22,1.48,25.41,1.04,5.74-.41,31.33-.09,30.98,8.63-.25,6.24-17.01,1.64-20.79,1.43-28.55-1.59-42.39,12.63-40.22,41.02,1.76,23.04,17.71,32.53,39.92,29.53,7.88-1.06,15.85-7.23,22.78-7.44,5.82-.18,10.85,3.09,16.1,3.67,6.86.75,31.14,1,37.38-.24,1.96-.39,5.63-2.13,5.83-4.31-1.39-27.83,2.73-58.28-2.34-85.64ZM503.04,113.91c-2.8,6.16-2.47,17.26-9.83,18.53-6.03-.58-11.76-21.79-12.49-27.1-1.31-9.46,5.77-38.01,10.18-46.98,1.61-3.29,5.85-8.39,9.64-4.57,4.16,4.19,2.41,23.46,3.35,29.51,1.75,11.22,18.4,4.14,25.87,3.61,6.48-.46,26.22-.23,30.01,5.76,6.13,9.7-15.37,4.56-18.86,4.35-15.14-.92-31.06,1.9-37.87,16.89ZM562.79,134.92c-9.78,7.01-15.54-9.32-8.45-11.42,2.21-.65,7.04-.68,8.54,1.21,1.31,2.16,1.72,8.68-.09,10.21ZM677.58,119.19c-.8,1.22-11.48,3.19-13.67,3.19-12.78.01-27.35-9.32-36.59,3.93-6.04-5.22-8.28-32.39-2.56-35.88,5.61-3.43,12.3,8.8,16.27,12.16,3.65,3.09,9.88,6.4,14.46,7.85,4.32,1.37,19.9,2.99,21.67,5.74.49.75.82,2.4.41,3.02ZM815.19,113.83c-7.14.23-8.18-5.15-8.52-11.22-.35-6.25-.06-15.09,7.82-15.34,7.14-.23,8.18,5.15,8.52,11.22.35,6.25.06,15.09-7.82,15.34ZM1080.37,136.23c-11.39,2.41-12.78-12.67-3.55-13.76,10.43-1.23,9.42,12.52,3.55,13.76Z"/>
</svg>